<?xml version="1.0" encoding="iso-8859-1"?>
<!-- Generator: Adobe Illustrator 19.0.0, SVG Export Plug-In . SVG Version: 6.00 Build 0)  -->
<svg version="1.1" id="Capa_1" xmlns="http://www.w3.org/2000/svg" xmlns:xlink="http://www.w3.org/1999/xlink" x="0px" y="0px"
	 viewBox="0 0 452.923 452.923" style="enable-background:new 0 0 452.923 452.923;" xml:space="preserve">
<g>
	<g>
		<path d="M358.4,68.923H94.523c-13.785,0-25.6,11.815-25.6,25.6V358.4c0,13.785,11.815,25.6,25.6,25.6H358.4
			c13.785,0,25.6-11.815,25.6-25.6V94.523C384,80.739,372.185,68.923,358.4,68.923z M364.308,358.4c0,2.954-2.954,5.908-5.908,5.908
			H94.523c-2.954,0-5.908-2.954-5.908-5.908V94.523c0-2.954,2.954-5.908,5.908-5.908H358.4c2.954,0,5.908,2.954,5.908,5.908V358.4z"
			/>
	</g>
</g>
<g>
	<g>
		<path d="M305.231,109.292H147.692c-21.662,0-39.385,17.723-39.385,39.385v157.538c0,21.662,17.723,39.385,39.385,39.385h157.538
			c21.661,0,39.385-16.739,39.385-39.385V148.677C344.615,127.015,326.892,109.292,305.231,109.292z M324.923,306.215
			c0,10.831-8.861,19.692-19.692,19.692H147.692c-10.831,0-19.692-8.862-19.692-19.692V148.677c0-10.831,8.861-19.692,19.692-19.692
			h157.538c10.831,0,19.692,8.862,19.692,19.692V306.215z"/>
	</g>
</g>
<g>
	<g>
		<path d="M271.754,162.462h-87.631c-13.785,0-24.615,10.831-24.615,24.615v88.615c0,13.785,10.831,24.615,24.615,24.615h87.631
			c13.785,0,24.615-11.815,24.615-25.6v-87.631C296.369,173.292,285.539,162.462,271.754,162.462z M276.677,274.708
			c0,2.954-1.969,4.923-4.923,4.923h-87.631c-2.954,0-4.923-1.969-4.923-4.923v-87.631c0-2.954,1.969-4.923,4.923-4.923h87.631
			c2.954,0,4.923,1.969,4.923,4.923V274.708z"/>
	</g>
</g>
<g>
	<g>
		<rect x="374.154" y="94.523" width="78.769" height="19.692"/>
	</g>
</g>
<g>
	<g>
		<rect x="374.154" y="134.892" width="78.769" height="19.692"/>
	</g>
</g>
<g>
	<g>
		<rect x="374.154" y="176.246" width="78.769" height="19.692"/>
	</g>
</g>
<g>
	<g>
		<rect x="374.154" y="216.615" width="78.769" height="19.692"/>
	</g>
</g>
<g>
	<g>
		<rect x="374.154" y="256.985" width="78.769" height="19.692"/>
	</g>
</g>
<g>
	<g>
		<rect x="374.154" y="298.338" width="78.769" height="19.692"/>
	</g>
</g>
<g>
	<g>
		<rect x="374.154" y="338.708" width="78.769" height="19.692"/>
	</g>
</g>
<g>
	<g>
		<rect y="94.523" width="69.908" height="19.692"/>
	</g>
</g>
<g>
	<g>
		<rect y="134.892" width="69.908" height="19.692"/>
	</g>
</g>
<g>
	<g>
		<rect y="176.246" width="69.908" height="19.692"/>
	</g>
</g>
<g>
	<g>
		<rect y="216.615" width="69.908" height="19.692"/>
	</g>
</g>
<g>
	<g>
		<rect y="256.985" width="69.908" height="19.692"/>
	</g>
</g>
<g>
	<g>
		<rect y="298.338" width="69.908" height="19.692"/>
	</g>
</g>
<g>
	<g>
		<rect y="338.708" width="69.908" height="19.692"/>
	</g>
</g>
<g>
	<g>
		<rect x="338.708" width="19.692" height="78.769"/>
	</g>
</g>
<g>
	<g>
		<rect x="298.339" width="19.692" height="78.769"/>
	</g>
</g>
<g>
	<g>
		<rect x="256.985" width="19.692" height="78.769"/>
	</g>
</g>
<g>
	<g>
		<rect x="216.615" width="19.692" height="78.769"/>
	</g>
</g>
<g>
	<g>
		<rect x="176.246" width="19.692" height="78.769"/>
	</g>
</g>
<g>
	<g>
		<rect x="134.892" width="19.692" height="78.769"/>
	</g>
</g>
<g>
	<g>
		<rect x="94.523" width="19.692" height="78.769"/>
	</g>
</g>
<g>
	<g>
		<rect x="338.708" y="383.015" width="19.692" height="69.908"/>
	</g>
</g>
<g>
	<g>
		<rect x="298.339" y="383.015" width="19.692" height="69.908"/>
	</g>
</g>
<g>
	<g>
		<rect x="256.985" y="383.015" width="19.692" height="69.908"/>
	</g>
</g>
<g>
	<g>
		<rect x="216.615" y="383.015" width="19.692" height="69.908"/>
	</g>
</g>
<g>
	<g>
		<rect x="176.246" y="383.015" width="19.692" height="69.908"/>
	</g>
</g>
<g>
	<g>
		<rect x="134.892" y="383.015" width="19.692" height="69.908"/>
	</g>
</g>
<g>
	<g>
		<rect x="94.523" y="383.015" width="19.692" height="69.908"/>
	</g>
</g>
<g>
</g>
<g>
</g>
<g>
</g>
<g>
</g>
<g>
</g>
<g>
</g>
<g>
</g>
<g>
</g>
<g>
</g>
<g>
</g>
<g>
</g>
<g>
</g>
<g>
</g>
<g>
</g>
<g>
</g>
</svg>
