<?xml version="1.0" encoding="iso-8859-1"?>
<!-- Generator: Adobe Illustrator 19.0.0, SVG Export Plug-In . SVG Version: 6.00 Build 0)  -->
<svg version="1.1" id="Capa_1" xmlns="http://www.w3.org/2000/svg" xmlns:xlink="http://www.w3.org/1999/xlink" x="0px" y="0px"
	 viewBox="0 0 512 512" style="enable-background:new 0 0 512 512;" xml:space="preserve">
<path style="fill:#53BBF3;" d="M453.28,475.421H58.72c-12.228,0-22.141-9.913-22.141-22.141V58.72
	c0-12.228,9.913-22.141,22.141-22.141h394.56c12.228,0,22.141,9.913,22.141,22.141v394.56
	C475.421,465.508,465.508,475.421,453.28,475.421z"/>
<path style="fill:#359EE0;" d="M453.28,36.579h-32.819v390.729c0,12.228-9.913,22.141-22.141,22.141H36.579v3.831
	c0,12.228,9.913,22.141,22.141,22.141h394.56c12.228,0,22.141-9.913,22.141-22.141V58.72
	C475.421,46.492,465.508,36.579,453.28,36.579z"/>
<path style="fill:#DFEAEF;" d="M382.294,321.787V139.603c0-5.466-4.431-9.897-9.897-9.897H139.603c-5.466,0-9.897,4.431-9.897,9.897
	v232.794c0,5.466,4.431,9.897,9.897,9.897h181.78c3.779,0,7.404-1.493,10.088-4.153l46.582-46.179
	C380.767,329.272,382.294,325.609,382.294,321.787z"/>
<path style="fill:#BFCFD6;" d="M372.397,129.706h-50.653c5.466,0,9.897,4.431,9.897,9.897v182.184c0,3.822-1.527,7.485-4.241,10.176
	l-28.841,28.591c-3.2,3.172-7.523,4.952-12.028,4.952H139.603c-5.466,0-9.897-4.431-9.897-9.897v16.788
	c0,5.466,4.431,9.897,9.897,9.897H270.73h50.653c3.779,0,7.404-1.493,10.088-4.153l46.582-46.178
	c2.714-2.691,4.241-6.354,4.241-10.176v-16.788V139.603C382.294,134.137,377.863,129.706,372.397,129.706z"/>
<path d="M192.574,225.655c10.38,0,11.145,6.816,11.364,9.923c0.109,3.007,3.06,4.11,7.103,4.11c4.807,0,7.102-1.203,7.102-6.415
	c0-11.627-10.817-19.045-26.005-19.045c-13.768,0-25.241,6.215-25.241,22.954v27.966c0,16.74,11.364,22.954,25.131,22.954
	c15.298,0,26.115-7.718,26.115-19.847c0-5.112-2.294-6.415-7.211-6.415c-3.715,0-6.775,1.003-6.993,4.11
	c-0.328,4.21-1.202,10.725-11.145,10.725c-7.54,0-11.692-3.708-11.692-11.527v-27.966
	C181.101,229.364,185.253,225.655,192.574,225.655z"/>
<path d="M241.96,283.392v-23.255h12.238c14.424,0,25.678-6.315,25.678-22.754v-0.602c0-16.439-10.927-22.553-24.803-22.553H233.11
	c-3.278,0-5.354,1.904-5.354,4.01v65.154c0,2.706,3.497,4.11,7.102,4.11C238.354,287.502,241.96,286.098,241.96,283.392z
	 M241.96,225.655h12.238c7.103,0,11.473,3.709,11.473,11.528v1.203c0,7.819-4.371,11.528-11.473,11.528H241.96V225.655z"/>
<path d="M295.39,214.228c-3.606,0-7.103,1.203-7.103,4.01v46.911c0,16.74,11.473,22.954,26.224,22.954
	c14.642,0,26.224-6.215,26.224-22.954v-46.911c0-2.807-3.606-4.01-7.102-4.01c-3.606,0-7.102,1.203-7.102,4.01v46.911
	c0,7.819-4.48,11.527-12.019,11.527c-7.54,0-12.02-3.708-12.02-11.527v-46.911C302.492,215.431,298.886,214.228,295.39,214.228z"/>
<circle cx="67" cy="63.63" r="8.05"/>
<circle cx="101.24" cy="63.63" r="8.05"/>
<circle cx="135.49" cy="63.63" r="8.05"/>
<circle cx="169.73" cy="63.63" r="8.05"/>
<circle cx="203.97" cy="63.63" r="8.05"/>
<circle cx="238.21" cy="63.63" r="8.05"/>
<circle cx="272.45" cy="63.63" r="8.05"/>
<circle cx="306.69" cy="63.63" r="8.05"/>
<circle cx="340.94" cy="63.63" r="8.05"/>
<circle cx="375.18" cy="63.63" r="8.05"/>
<circle cx="409.42" cy="63.63" r="8.05"/>
<circle cx="443.66" cy="63.63" r="8.05"/>
<circle cx="67" cy="98.31" r="8.05"/>
<circle cx="101.24" cy="98.31" r="8.05"/>
<circle cx="135.49" cy="98.31" r="8.05"/>
<circle cx="169.73" cy="98.31" r="8.05"/>
<circle cx="203.97" cy="98.31" r="8.05"/>
<circle cx="238.21" cy="98.31" r="8.05"/>
<circle cx="272.45" cy="98.31" r="8.05"/>
<circle cx="306.69" cy="98.31" r="8.05"/>
<circle cx="340.94" cy="98.31" r="8.05"/>
<circle cx="375.18" cy="98.31" r="8.05"/>
<circle cx="409.42" cy="98.31" r="8.05"/>
<circle cx="443.66" cy="98.31" r="8.05"/>
<circle cx="67" cy="133.3" r="8.05"/>
<circle cx="101.24" cy="133.3" r="8.05"/>
<circle cx="409.42" cy="133.3" r="8.05"/>
<circle cx="443.66" cy="133.3" r="8.05"/>
<circle cx="67" cy="167.98" r="8.05"/>
<circle cx="101.24" cy="167.98" r="8.05"/>
<circle cx="409.42" cy="167.98" r="8.05"/>
<circle cx="443.66" cy="167.98" r="8.05"/>
<circle cx="67" cy="202.97" r="8.05"/>
<circle cx="101.24" cy="202.97" r="8.05"/>
<circle cx="409.42" cy="202.97" r="8.05"/>
<circle cx="443.66" cy="202.97" r="8.05"/>
<circle cx="67" cy="237.65" r="8.05"/>
<circle cx="101.24" cy="237.65" r="8.05"/>
<circle cx="409.42" cy="237.65" r="8.05"/>
<circle cx="443.66" cy="237.65" r="8.05"/>
<circle cx="67" cy="272.64" r="8.05"/>
<circle cx="101.24" cy="272.64" r="8.05"/>
<circle cx="409.42" cy="272.64" r="8.05"/>
<circle cx="443.66" cy="272.64" r="8.05"/>
<circle cx="67" cy="307.32" r="8.05"/>
<circle cx="101.24" cy="307.32" r="8.05"/>
<circle cx="409.42" cy="307.32" r="8.05"/>
<circle cx="443.66" cy="307.32" r="8.05"/>
<circle cx="67" cy="342.31" r="8.05"/>
<circle cx="101.24" cy="342.31" r="8.05"/>
<circle cx="409.42" cy="342.31" r="8.05"/>
<circle cx="443.66" cy="342.31" r="8.05"/>
<circle cx="67" cy="376.98" r="8.05"/>
<circle cx="101.24" cy="376.98" r="8.05"/>
<circle cx="409.42" cy="376.98" r="8.05"/>
<circle cx="443.66" cy="376.98" r="8.05"/>
<circle cx="67" cy="411.98" r="8.05"/>
<circle cx="101.24" cy="411.98" r="8.05"/>
<circle cx="135.49" cy="411.98" r="8.05"/>
<circle cx="169.73" cy="411.98" r="8.05"/>
<circle cx="203.97" cy="411.98" r="8.05"/>
<circle cx="238.21" cy="411.98" r="8.05"/>
<circle cx="272.45" cy="411.98" r="8.05"/>
<circle cx="306.69" cy="411.98" r="8.05"/>
<circle cx="340.94" cy="411.98" r="8.05"/>
<circle cx="375.18" cy="411.98" r="8.05"/>
<circle cx="409.42" cy="411.98" r="8.05"/>
<circle cx="443.66" cy="411.98" r="8.05"/>
<circle cx="67" cy="446.65" r="8.05"/>
<circle cx="101.24" cy="446.65" r="8.05"/>
<circle cx="135.49" cy="446.65" r="8.05"/>
<circle cx="169.73" cy="446.65" r="8.05"/>
<circle cx="203.97" cy="446.65" r="8.05"/>
<circle cx="238.21" cy="446.65" r="8.05"/>
<circle cx="272.45" cy="446.65" r="8.05"/>
<circle cx="306.69" cy="446.65" r="8.05"/>
<circle cx="340.94" cy="446.65" r="8.05"/>
<circle cx="375.18" cy="446.65" r="8.05"/>
<circle cx="409.42" cy="446.65" r="8.05"/>
<circle cx="443.66" cy="446.65" r="8.05"/>
<path d="M372.397,122.206H139.604c-9.593,0-17.397,7.804-17.397,17.397V236c0,4.142,3.358,7.5,7.5,7.5s7.5-3.358,7.5-7.5v-96.397
	c0-1.322,1.076-2.397,2.397-2.397h232.793c1.322,0,2.397,1.075,2.397,2.397V236c0,4.142,3.358,7.5,7.5,7.5s7.5-3.358,7.5-7.5
	v-96.397C389.794,130.01,381.99,122.206,372.397,122.206z"/>
<path d="M382.294,268.5c-4.142,0-7.5,3.358-7.5,7.5v45.787c0,1.809-0.737,3.577-2.021,4.85l-46.582,46.178
	c-1.287,1.276-2.995,1.979-4.808,1.979h-181.78c-1.322,0-2.397-1.075-2.397-2.397V276c0-4.142-3.358-7.5-7.5-7.5s-7.5,3.358-7.5,7.5
	v96.397c0,9.593,7.805,17.397,17.397,17.397h181.78c5.795,0,11.253-2.247,15.368-6.327l46.582-46.178
	c4.106-4.07,6.461-9.721,6.461-15.502V276C389.794,271.858,386.437,268.5,382.294,268.5z"/>
<path d="M504.5,146.815c4.142,0,7.5-3.358,7.5-7.5s-3.358-7.5-7.5-7.5h-21.579V88.473H504.5c4.142,0,7.5-3.358,7.5-7.5
	s-3.358-7.5-7.5-7.5h-21.579V58.72c0-16.344-13.297-29.641-29.641-29.641h-14.753V7.5c0-4.142-3.358-7.5-7.5-7.5s-7.5,3.358-7.5,7.5
	v21.579h-43.342V7.5c0-4.142-3.358-7.5-7.5-7.5s-7.5,3.358-7.5,7.5v21.579h-43.343V7.5c0-4.142-3.358-7.5-7.5-7.5
	s-7.5,3.358-7.5,7.5v21.579H263.5V7.5c0-4.142-3.358-7.5-7.5-7.5s-7.5,3.358-7.5,7.5v21.579h-43.342V7.5c0-4.142-3.358-7.5-7.5-7.5
	s-7.5,3.358-7.5,7.5v21.579h-43.343V7.5c0-4.142-3.358-7.5-7.5-7.5s-7.5,3.358-7.5,7.5v21.579H88.473V7.5c0-4.142-3.358-7.5-7.5-7.5
	s-7.5,3.358-7.5,7.5v21.579H58.72c-16.344,0-29.641,13.297-29.641,29.641v14.753H7.5c-4.142,0-7.5,3.358-7.5,7.5s3.358,7.5,7.5,7.5
	h21.579v43.342H7.5c-4.142,0-7.5,3.358-7.5,7.5s3.358,7.5,7.5,7.5h21.579v43.343H7.5c-4.142,0-7.5,3.358-7.5,7.5s3.358,7.5,7.5,7.5
	h21.579V248.5H7.5c-4.142,0-7.5,3.358-7.5,7.5s3.358,7.5,7.5,7.5h21.579v43.342H7.5c-4.142,0-7.5,3.358-7.5,7.5s3.358,7.5,7.5,7.5
	h21.579v43.343H7.5c-4.142,0-7.5,3.358-7.5,7.5s3.358,7.5,7.5,7.5h21.579v43.342H7.5c-4.142,0-7.5,3.358-7.5,7.5s3.358,7.5,7.5,7.5
	h21.579v14.753c0,16.344,13.297,29.641,29.641,29.641h14.753V504.5c0,4.142,3.358,7.5,7.5,7.5s7.5-3.358,7.5-7.5v-21.579h43.342
	V504.5c0,4.142,3.358,7.5,7.5,7.5s7.5-3.358,7.5-7.5v-21.579h43.343V504.5c0,4.142,3.358,7.5,7.5,7.5s7.5-3.358,7.5-7.5v-21.579
	H248.5V504.5c0,4.142,3.358,7.5,7.5,7.5s7.5-3.358,7.5-7.5v-21.579h43.342V504.5c0,4.142,3.358,7.5,7.5,7.5s7.5-3.358,7.5-7.5
	v-21.579h43.343V504.5c0,4.142,3.358,7.5,7.5,7.5s7.5-3.358,7.5-7.5v-21.579h43.342V504.5c0,4.142,3.358,7.5,7.5,7.5
	s7.5-3.358,7.5-7.5v-21.579h14.753c16.344,0,29.641-13.297,29.641-29.641v-14.753H504.5c4.142,0,7.5-3.358,7.5-7.5
	s-3.358-7.5-7.5-7.5h-21.579v-43.342H504.5c4.142,0,7.5-3.358,7.5-7.5s-3.358-7.5-7.5-7.5h-21.579v-43.343H504.5
	c4.142,0,7.5-3.358,7.5-7.5s-3.358-7.5-7.5-7.5h-21.579V263.5H504.5c4.142,0,7.5-3.358,7.5-7.5s-3.358-7.5-7.5-7.5h-21.579v-43.342
	H504.5c4.142,0,7.5-3.358,7.5-7.5s-3.358-7.5-7.5-7.5h-21.579v-43.343H504.5z M467.921,80.963c0,0.003,0,0.006,0,0.01
	s0,0.006,0,0.01v58.323c0,0.003,0,0.006,0,0.01s0,0.006,0,0.01v58.323c0,0.003,0,0.006,0,0.01s0,0.006,0,0.01v58.323
	c0,0.003,0,0.006,0,0.01c0,0.004,0,0.006,0,0.01v58.323c0,0.003,0,0.006,0,0.01s0,0.006,0,0.01v58.323c0,0.003,0,0.006,0,0.01
	s0,0.006,0,0.01v58.323c0,0.003,0,0.006,0,0.01s0,0.006,0,0.01v22.243c0,8.073-6.568,14.641-14.641,14.641H58.72
	c-8.073,0-14.641-6.568-14.641-14.641V58.72c0-8.073,6.568-14.641,14.641-14.641h394.56c8.073,0,14.641,6.568,14.641,14.641V80.963z
	"/>
<g>
</g>
<g>
</g>
<g>
</g>
<g>
</g>
<g>
</g>
<g>
</g>
<g>
</g>
<g>
</g>
<g>
</g>
<g>
</g>
<g>
</g>
<g>
</g>
<g>
</g>
<g>
</g>
<g>
</g>
</svg>
